<?xml version="1.0" standalone="no"?>
<!DOCTYPE svg PUBLIC "-//W3C//DTD SVG 20010904//EN"
 "http://www.w3.org/TR/2001/REC-SVG-20010904/DTD/svg10.dtd">
<svg version="1.0" xmlns="http://www.w3.org/2000/svg"
 width="2482.000000pt" height="2482.000000pt" viewBox="0 0 2482.000000 2482.000000"
 preserveAspectRatio="xMidYMid meet">
<metadata>
Created by potrace 1.14, written by Peter Selinger 2001-2017
</metadata>
<g transform="translate(0.000000,2482.000000) scale(0.100000,-0.100000)"
fill="#000000" stroke="none">
<path d="M0 12410 l0 -12410 12410 0 12410 0 0 12410 0 12410 -12410 0 -12410
0 0 -12410z m12615 5800 c110 -5 230 -12 268 -16 l67 -7 0 -573 0 -574 -52 5
c-305 31 -824 31 -1000 0 l-28 -4 0 573 0 574 73 7 c66 7 302 20 422 23 28 1
140 -3 250 -8z m-1532 -237 c4 -54 7 -317 7 -584 l0 -486 -147 -42 c-637 -184
-1263 -527 -1760 -963 -121 -106 -362 -352 -464 -473 -442 -525 -760 -1147
-933 -1827 -221 -870 -205 -1768 47 -2584 474 -1535 1747 -2781 3287 -3219
1014 -288 2050 -235 3030 155 1104 439 2028 1297 2560 2375 247 502 389 986
456 1560 25 212 25 723 0 960 -63 605 -205 1114 -450 1620 -214 442 -443 776
-774 1130 -550 587 -1278 1028 -2079 1260 l-133 38 0 589 0 589 38 -7 c83 -14
426 -106 562 -149 757 -244 1409 -606 2019 -1122 143 -121 434 -410 568 -563
306 -351 589 -773 797 -1189 563 -1123 756 -2456 535 -3691 -265 -1480 -1140
-2850 -2399 -3757 -765 -551 -1665 -919 -2570 -1053 -336 -49 -426 -55 -870
-55 -444 0 -534 6 -870 55 -1888 278 -3577 1515 -4449 3259 -591 1181 -753
2466 -481 3811 110 543 308 1094 565 1571 396 735 926 1354 1580 1845 647 485
1350 812 2185 1015 63 15 120 28 126 28 7 1 13 -35 17 -96z m1737 -1916 l125
-12 3 -1932 2 -1933 -540 0 -540 0 2 1932 3 1933 55 8 c187 27 619 29 890 4z
m-1730 -947 l0 -749 -47 -32 c-105 -71 -244 -188 -353 -299 -575 -582 -804
-1419 -605 -2211 86 -342 263 -680 497 -954 371 -433 876 -713 1463 -812 170
-28 593 -25 765 5 740 132 1344 555 1707 1197 139 245 249 583 279 853 l7 62
683 0 684 0 0 -25 c0 -67 -34 -326 -61 -465 -112 -569 -363 -1110 -736 -1581
-127 -162 -435 -470 -586 -589 -583 -457 -1227 -721 -1962 -806 -181 -21 -602
-24 -775 -6 -544 58 -1040 212 -1485 461 -1388 777 -2125 2299 -1865 3849 191
1136 939 2145 1985 2675 108 55 379 175 398 176 4 1 7 -336 7 -749z m2805 688
c1027 -428 1830 -1325 2139 -2388 36 -126 96 -393 96 -430 0 -20 -6 -20 -693
-20 l-693 0 -37 120 c-87 281 -228 545 -411 775 -137 171 -393 402 -564 510
-1 1 -4 338 -5 749 l-2 747 25 -6 c14 -4 79 -29 145 -57z"/>
</g>
</svg>
